<mxfile host="Electron" modified="2024-10-29T23:01:13.643Z" agent="Mozilla/5.0 (Macintosh; Intel Mac OS X 10_15_7) AppleWebKit/537.36 (KHTML, like Gecko) draw.io/24.2.5 Chrome/120.0.6099.109 Electron/28.1.0 Safari/537.36" etag="0g63IT4mYS5ESMmfoA-o" version="24.2.5" type="device">
  <diagram name="PÃ¡gina-1" id="Lgfir5TL_IvKohMoD9o7">
    <mxGraphModel dx="1657" dy="632" grid="1" gridSize="10" guides="1" tooltips="1" connect="1" arrows="1" fold="1" page="1" pageScale="1" pageWidth="827" pageHeight="1169" math="0" shadow="0">
      <root>
        <mxCell id="0" />
        <mxCell id="1" parent="0" />
        <mxCell id="SklnfCunGVez2fM2IOkM-1" value="" style="ellipse;whiteSpace=wrap;html=1;aspect=fixed;" parent="1" vertex="1">
          <mxGeometry x="110" y="360" width="80" height="80" as="geometry" />
        </mxCell>
        <mxCell id="SklnfCunGVez2fM2IOkM-2" value="" style="endArrow=none;html=1;rounded=0;entryX=1;entryY=0.5;entryDx=0;entryDy=0;exitX=0;exitY=0.5;exitDx=0;exitDy=0;" parent="1" source="SklnfCunGVez2fM2IOkM-1" target="SklnfCunGVez2fM2IOkM-1" edge="1">
          <mxGeometry width="50" height="50" relative="1" as="geometry">
            <mxPoint x="125" y="430" as="sourcePoint" />
            <mxPoint x="175" y="380" as="targetPoint" />
          </mxGeometry>
        </mxCell>
        <mxCell id="SklnfCunGVez2fM2IOkM-3" value="" style="endArrow=none;html=1;rounded=0;entryX=0.5;entryY=0;entryDx=0;entryDy=0;" parent="1" target="SklnfCunGVez2fM2IOkM-1" edge="1">
          <mxGeometry width="50" height="50" relative="1" as="geometry">
            <mxPoint x="150" y="400" as="sourcePoint" />
            <mxPoint x="410" y="350" as="targetPoint" />
          </mxGeometry>
        </mxCell>
        <mxCell id="6LBf9swrGAn-HD8DNBI7-2" value="" style="ellipse;whiteSpace=wrap;html=1;aspect=fixed;" parent="1" vertex="1">
          <mxGeometry x="270" y="360" width="80" height="80" as="geometry" />
        </mxCell>
        <mxCell id="6LBf9swrGAn-HD8DNBI7-3" value="" style="endArrow=none;html=1;rounded=0;entryX=1;entryY=0.5;entryDx=0;entryDy=0;exitX=0;exitY=0.5;exitDx=0;exitDy=0;" parent="1" source="6LBf9swrGAn-HD8DNBI7-2" target="6LBf9swrGAn-HD8DNBI7-2" edge="1">
          <mxGeometry width="50" height="50" relative="1" as="geometry">
            <mxPoint x="285" y="430" as="sourcePoint" />
            <mxPoint x="335" y="380" as="targetPoint" />
          </mxGeometry>
        </mxCell>
        <mxCell id="6LBf9swrGAn-HD8DNBI7-4" value="" style="endArrow=none;html=1;rounded=0;entryX=0.5;entryY=0;entryDx=0;entryDy=0;" parent="1" target="6LBf9swrGAn-HD8DNBI7-2" edge="1">
          <mxGeometry width="50" height="50" relative="1" as="geometry">
            <mxPoint x="310" y="400" as="sourcePoint" />
            <mxPoint x="570" y="350" as="targetPoint" />
          </mxGeometry>
        </mxCell>
        <mxCell id="6LBf9swrGAn-HD8DNBI7-5" value="" style="ellipse;whiteSpace=wrap;html=1;aspect=fixed;" parent="1" vertex="1">
          <mxGeometry x="270" y="210" width="80" height="80" as="geometry" />
        </mxCell>
        <mxCell id="6LBf9swrGAn-HD8DNBI7-6" value="" style="endArrow=none;html=1;rounded=0;entryX=1;entryY=0.5;entryDx=0;entryDy=0;exitX=0;exitY=0.5;exitDx=0;exitDy=0;" parent="1" source="6LBf9swrGAn-HD8DNBI7-5" target="6LBf9swrGAn-HD8DNBI7-5" edge="1">
          <mxGeometry width="50" height="50" relative="1" as="geometry">
            <mxPoint x="285" y="280" as="sourcePoint" />
            <mxPoint x="335" y="230" as="targetPoint" />
          </mxGeometry>
        </mxCell>
        <mxCell id="6LBf9swrGAn-HD8DNBI7-7" value="" style="endArrow=none;html=1;rounded=0;entryX=0.5;entryY=0;entryDx=0;entryDy=0;" parent="1" target="6LBf9swrGAn-HD8DNBI7-5" edge="1">
          <mxGeometry width="50" height="50" relative="1" as="geometry">
            <mxPoint x="310" y="250" as="sourcePoint" />
            <mxPoint x="570" y="200" as="targetPoint" />
          </mxGeometry>
        </mxCell>
        <mxCell id="6LBf9swrGAn-HD8DNBI7-8" value="" style="ellipse;whiteSpace=wrap;html=1;aspect=fixed;" parent="1" vertex="1">
          <mxGeometry x="430" y="360" width="80" height="80" as="geometry" />
        </mxCell>
        <mxCell id="6LBf9swrGAn-HD8DNBI7-9" value="" style="endArrow=none;html=1;rounded=0;entryX=1;entryY=0.5;entryDx=0;entryDy=0;exitX=0;exitY=0.5;exitDx=0;exitDy=0;" parent="1" source="6LBf9swrGAn-HD8DNBI7-8" target="6LBf9swrGAn-HD8DNBI7-8" edge="1">
          <mxGeometry width="50" height="50" relative="1" as="geometry">
            <mxPoint x="445" y="430" as="sourcePoint" />
            <mxPoint x="495" y="380" as="targetPoint" />
          </mxGeometry>
        </mxCell>
        <mxCell id="6LBf9swrGAn-HD8DNBI7-10" value="" style="endArrow=none;html=1;rounded=0;entryX=0.5;entryY=0;entryDx=0;entryDy=0;" parent="1" target="6LBf9swrGAn-HD8DNBI7-8" edge="1">
          <mxGeometry width="50" height="50" relative="1" as="geometry">
            <mxPoint x="470" y="400" as="sourcePoint" />
            <mxPoint x="730" y="350" as="targetPoint" />
          </mxGeometry>
        </mxCell>
        <mxCell id="6LBf9swrGAn-HD8DNBI7-11" value="" style="endArrow=classic;html=1;rounded=0;exitX=1;exitY=0.5;exitDx=0;exitDy=0;entryX=0;entryY=0.5;entryDx=0;entryDy=0;strokeColor=#FF0000;" parent="1" source="SklnfCunGVez2fM2IOkM-1" target="6LBf9swrGAn-HD8DNBI7-2" edge="1">
          <mxGeometry width="50" height="50" relative="1" as="geometry">
            <mxPoint x="400" y="400" as="sourcePoint" />
            <mxPoint x="270" y="400" as="targetPoint" />
          </mxGeometry>
        </mxCell>
        <mxCell id="6LBf9swrGAn-HD8DNBI7-12" value="" style="endArrow=classic;html=1;rounded=0;exitX=1;exitY=0;exitDx=0;exitDy=0;entryX=0.1;entryY=0.763;entryDx=0;entryDy=0;entryPerimeter=0;" parent="1" source="SklnfCunGVez2fM2IOkM-1" target="6LBf9swrGAn-HD8DNBI7-5" edge="1">
          <mxGeometry width="50" height="50" relative="1" as="geometry">
            <mxPoint x="200" y="410" as="sourcePoint" />
            <mxPoint x="280" y="410" as="targetPoint" />
          </mxGeometry>
        </mxCell>
        <mxCell id="6LBf9swrGAn-HD8DNBI7-13" value="" style="endArrow=classic;html=1;rounded=0;exitX=1;exitY=1;exitDx=0;exitDy=0;" parent="1" source="SklnfCunGVez2fM2IOkM-1" edge="1">
          <mxGeometry width="50" height="50" relative="1" as="geometry">
            <mxPoint x="200" y="410" as="sourcePoint" />
            <mxPoint x="430" y="400" as="targetPoint" />
            <Array as="points">
              <mxPoint x="310" y="500" />
            </Array>
          </mxGeometry>
        </mxCell>
        <mxCell id="6LBf9swrGAn-HD8DNBI7-14" value="" style="endArrow=classic;html=1;rounded=0;exitX=1;exitY=1;exitDx=0;exitDy=0;entryX=0;entryY=0;entryDx=0;entryDy=0;strokeColor=#FF0000;" parent="1" source="6LBf9swrGAn-HD8DNBI7-5" target="6LBf9swrGAn-HD8DNBI7-8" edge="1">
          <mxGeometry width="50" height="50" relative="1" as="geometry">
            <mxPoint x="188" y="382" as="sourcePoint" />
            <mxPoint x="288" y="281" as="targetPoint" />
          </mxGeometry>
        </mxCell>
        <mxCell id="6LBf9swrGAn-HD8DNBI7-27" value="" style="ellipse;whiteSpace=wrap;html=1;aspect=fixed;" parent="1" vertex="1">
          <mxGeometry x="770" y="360" width="80" height="80" as="geometry" />
        </mxCell>
        <mxCell id="6LBf9swrGAn-HD8DNBI7-28" value="" style="endArrow=none;html=1;rounded=0;entryX=1;entryY=0.5;entryDx=0;entryDy=0;exitX=0;exitY=0.5;exitDx=0;exitDy=0;" parent="1" source="6LBf9swrGAn-HD8DNBI7-27" target="6LBf9swrGAn-HD8DNBI7-27" edge="1">
          <mxGeometry width="50" height="50" relative="1" as="geometry">
            <mxPoint x="785" y="430" as="sourcePoint" />
            <mxPoint x="835" y="380" as="targetPoint" />
          </mxGeometry>
        </mxCell>
        <mxCell id="6LBf9swrGAn-HD8DNBI7-29" value="" style="endArrow=none;html=1;rounded=0;entryX=0.5;entryY=0;entryDx=0;entryDy=0;" parent="1" target="6LBf9swrGAn-HD8DNBI7-27" edge="1">
          <mxGeometry width="50" height="50" relative="1" as="geometry">
            <mxPoint x="810" y="400" as="sourcePoint" />
            <mxPoint x="1070" y="350" as="targetPoint" />
          </mxGeometry>
        </mxCell>
        <mxCell id="6LBf9swrGAn-HD8DNBI7-30" value="" style="ellipse;whiteSpace=wrap;html=1;aspect=fixed;" parent="1" vertex="1">
          <mxGeometry x="710" y="210" width="80" height="80" as="geometry" />
        </mxCell>
        <mxCell id="6LBf9swrGAn-HD8DNBI7-31" value="" style="endArrow=none;html=1;rounded=0;entryX=1;entryY=0.5;entryDx=0;entryDy=0;exitX=0;exitY=0.5;exitDx=0;exitDy=0;" parent="1" source="6LBf9swrGAn-HD8DNBI7-30" target="6LBf9swrGAn-HD8DNBI7-30" edge="1">
          <mxGeometry width="50" height="50" relative="1" as="geometry">
            <mxPoint x="725" y="280" as="sourcePoint" />
            <mxPoint x="775" y="230" as="targetPoint" />
          </mxGeometry>
        </mxCell>
        <mxCell id="6LBf9swrGAn-HD8DNBI7-32" value="" style="endArrow=none;html=1;rounded=0;entryX=0.5;entryY=0;entryDx=0;entryDy=0;" parent="1" target="6LBf9swrGAn-HD8DNBI7-30" edge="1">
          <mxGeometry width="50" height="50" relative="1" as="geometry">
            <mxPoint x="750" y="250" as="sourcePoint" />
            <mxPoint x="1010" y="200" as="targetPoint" />
          </mxGeometry>
        </mxCell>
        <mxCell id="6LBf9swrGAn-HD8DNBI7-33" value="" style="ellipse;whiteSpace=wrap;html=1;aspect=fixed;" parent="1" vertex="1">
          <mxGeometry x="710" y="520" width="80" height="80" as="geometry" />
        </mxCell>
        <mxCell id="6LBf9swrGAn-HD8DNBI7-34" value="" style="endArrow=none;html=1;rounded=0;entryX=1;entryY=0.5;entryDx=0;entryDy=0;exitX=0;exitY=0.5;exitDx=0;exitDy=0;" parent="1" source="6LBf9swrGAn-HD8DNBI7-33" target="6LBf9swrGAn-HD8DNBI7-33" edge="1">
          <mxGeometry width="50" height="50" relative="1" as="geometry">
            <mxPoint x="725" y="590" as="sourcePoint" />
            <mxPoint x="775" y="540" as="targetPoint" />
          </mxGeometry>
        </mxCell>
        <mxCell id="6LBf9swrGAn-HD8DNBI7-35" value="" style="endArrow=none;html=1;rounded=0;entryX=0.5;entryY=0;entryDx=0;entryDy=0;" parent="1" target="6LBf9swrGAn-HD8DNBI7-33" edge="1">
          <mxGeometry width="50" height="50" relative="1" as="geometry">
            <mxPoint x="750" y="560" as="sourcePoint" />
            <mxPoint x="1010" y="510" as="targetPoint" />
          </mxGeometry>
        </mxCell>
        <mxCell id="6LBf9swrGAn-HD8DNBI7-36" value="" style="ellipse;whiteSpace=wrap;html=1;aspect=fixed;" parent="1" vertex="1">
          <mxGeometry x="580" y="360" width="80" height="80" as="geometry" />
        </mxCell>
        <mxCell id="6LBf9swrGAn-HD8DNBI7-37" value="" style="endArrow=none;html=1;rounded=0;entryX=1;entryY=0.5;entryDx=0;entryDy=0;exitX=0;exitY=0.5;exitDx=0;exitDy=0;" parent="1" source="6LBf9swrGAn-HD8DNBI7-36" target="6LBf9swrGAn-HD8DNBI7-36" edge="1">
          <mxGeometry width="50" height="50" relative="1" as="geometry">
            <mxPoint x="595" y="430" as="sourcePoint" />
            <mxPoint x="645" y="380" as="targetPoint" />
          </mxGeometry>
        </mxCell>
        <mxCell id="6LBf9swrGAn-HD8DNBI7-38" value="" style="endArrow=none;html=1;rounded=0;entryX=0.5;entryY=0;entryDx=0;entryDy=0;" parent="1" target="6LBf9swrGAn-HD8DNBI7-36" edge="1">
          <mxGeometry width="50" height="50" relative="1" as="geometry">
            <mxPoint x="620" y="400" as="sourcePoint" />
            <mxPoint x="880" y="350" as="targetPoint" />
          </mxGeometry>
        </mxCell>
        <mxCell id="6LBf9swrGAn-HD8DNBI7-39" value="" style="endArrow=classic;html=1;rounded=0;exitX=1;exitY=0.5;exitDx=0;exitDy=0;entryX=0;entryY=0.5;entryDx=0;entryDy=0;strokeColor=#FF0000;" parent="1" source="6LBf9swrGAn-HD8DNBI7-8" target="6LBf9swrGAn-HD8DNBI7-36" edge="1">
          <mxGeometry width="50" height="50" relative="1" as="geometry">
            <mxPoint x="348" y="288" as="sourcePoint" />
            <mxPoint x="452" y="382" as="targetPoint" />
          </mxGeometry>
        </mxCell>
        <mxCell id="6LBf9swrGAn-HD8DNBI7-40" value="" style="endArrow=classic;html=1;rounded=0;exitX=1;exitY=0;exitDx=0;exitDy=0;entryX=0;entryY=1;entryDx=0;entryDy=0;" parent="1" source="6LBf9swrGAn-HD8DNBI7-36" target="6LBf9swrGAn-HD8DNBI7-30" edge="1">
          <mxGeometry width="50" height="50" relative="1" as="geometry">
            <mxPoint x="358" y="298" as="sourcePoint" />
            <mxPoint x="462" y="392" as="targetPoint" />
          </mxGeometry>
        </mxCell>
        <mxCell id="6LBf9swrGAn-HD8DNBI7-41" value="" style="endArrow=classic;html=1;rounded=0;exitX=1;exitY=0.5;exitDx=0;exitDy=0;entryX=0;entryY=0.5;entryDx=0;entryDy=0;" parent="1" source="6LBf9swrGAn-HD8DNBI7-36" target="6LBf9swrGAn-HD8DNBI7-27" edge="1">
          <mxGeometry width="50" height="50" relative="1" as="geometry">
            <mxPoint x="658" y="382" as="sourcePoint" />
            <mxPoint x="732" y="288" as="targetPoint" />
          </mxGeometry>
        </mxCell>
        <mxCell id="6LBf9swrGAn-HD8DNBI7-42" value="" style="endArrow=classic;html=1;rounded=0;exitX=1;exitY=1;exitDx=0;exitDy=0;entryX=0;entryY=0;entryDx=0;entryDy=0;strokeColor=#FF0000;" parent="1" source="6LBf9swrGAn-HD8DNBI7-36" target="6LBf9swrGAn-HD8DNBI7-33" edge="1">
          <mxGeometry width="50" height="50" relative="1" as="geometry">
            <mxPoint x="668" y="392" as="sourcePoint" />
            <mxPoint x="742" y="298" as="targetPoint" />
          </mxGeometry>
        </mxCell>
        <mxCell id="6LBf9swrGAn-HD8DNBI7-43" value="" style="ellipse;whiteSpace=wrap;html=1;aspect=fixed;" parent="1" vertex="1">
          <mxGeometry x="920" y="360" width="80" height="80" as="geometry" />
        </mxCell>
        <mxCell id="6LBf9swrGAn-HD8DNBI7-44" value="" style="endArrow=none;html=1;rounded=0;entryX=1;entryY=0.5;entryDx=0;entryDy=0;exitX=0;exitY=0.5;exitDx=0;exitDy=0;" parent="1" source="6LBf9swrGAn-HD8DNBI7-43" target="6LBf9swrGAn-HD8DNBI7-43" edge="1">
          <mxGeometry width="50" height="50" relative="1" as="geometry">
            <mxPoint x="935" y="430" as="sourcePoint" />
            <mxPoint x="985" y="380" as="targetPoint" />
          </mxGeometry>
        </mxCell>
        <mxCell id="6LBf9swrGAn-HD8DNBI7-45" value="" style="endArrow=none;html=1;rounded=0;entryX=0.5;entryY=0;entryDx=0;entryDy=0;" parent="1" target="6LBf9swrGAn-HD8DNBI7-43" edge="1">
          <mxGeometry width="50" height="50" relative="1" as="geometry">
            <mxPoint x="960" y="400" as="sourcePoint" />
            <mxPoint x="1220" y="350" as="targetPoint" />
          </mxGeometry>
        </mxCell>
        <mxCell id="6LBf9swrGAn-HD8DNBI7-46" value="" style="ellipse;whiteSpace=wrap;html=1;aspect=fixed;" parent="1" vertex="1">
          <mxGeometry x="1070" y="360" width="80" height="80" as="geometry" />
        </mxCell>
        <mxCell id="6LBf9swrGAn-HD8DNBI7-47" value="" style="endArrow=none;html=1;rounded=0;entryX=1;entryY=0.5;entryDx=0;entryDy=0;exitX=0;exitY=0.5;exitDx=0;exitDy=0;" parent="1" source="6LBf9swrGAn-HD8DNBI7-46" target="6LBf9swrGAn-HD8DNBI7-46" edge="1">
          <mxGeometry width="50" height="50" relative="1" as="geometry">
            <mxPoint x="1085" y="430" as="sourcePoint" />
            <mxPoint x="1135" y="380" as="targetPoint" />
          </mxGeometry>
        </mxCell>
        <mxCell id="6LBf9swrGAn-HD8DNBI7-48" value="" style="endArrow=none;html=1;rounded=0;entryX=0.5;entryY=0;entryDx=0;entryDy=0;" parent="1" target="6LBf9swrGAn-HD8DNBI7-46" edge="1">
          <mxGeometry width="50" height="50" relative="1" as="geometry">
            <mxPoint x="1110" y="400" as="sourcePoint" />
            <mxPoint x="1370" y="350" as="targetPoint" />
          </mxGeometry>
        </mxCell>
        <mxCell id="6LBf9swrGAn-HD8DNBI7-49" value="" style="ellipse;whiteSpace=wrap;html=1;aspect=fixed;" parent="1" vertex="1">
          <mxGeometry x="1230" y="360" width="80" height="80" as="geometry" />
        </mxCell>
        <mxCell id="6LBf9swrGAn-HD8DNBI7-50" value="" style="endArrow=none;html=1;rounded=0;entryX=1;entryY=0.5;entryDx=0;entryDy=0;exitX=0;exitY=0.5;exitDx=0;exitDy=0;" parent="1" source="6LBf9swrGAn-HD8DNBI7-49" target="6LBf9swrGAn-HD8DNBI7-49" edge="1">
          <mxGeometry width="50" height="50" relative="1" as="geometry">
            <mxPoint x="1245" y="430" as="sourcePoint" />
            <mxPoint x="1295" y="380" as="targetPoint" />
          </mxGeometry>
        </mxCell>
        <mxCell id="6LBf9swrGAn-HD8DNBI7-51" value="" style="endArrow=none;html=1;rounded=0;entryX=0.5;entryY=0;entryDx=0;entryDy=0;" parent="1" target="6LBf9swrGAn-HD8DNBI7-49" edge="1">
          <mxGeometry width="50" height="50" relative="1" as="geometry">
            <mxPoint x="1270" y="400" as="sourcePoint" />
            <mxPoint x="1530" y="350" as="targetPoint" />
          </mxGeometry>
        </mxCell>
        <mxCell id="6LBf9swrGAn-HD8DNBI7-52" value="" style="ellipse;whiteSpace=wrap;html=1;aspect=fixed;" parent="1" vertex="1">
          <mxGeometry x="1390" y="360" width="80" height="80" as="geometry" />
        </mxCell>
        <mxCell id="6LBf9swrGAn-HD8DNBI7-53" value="" style="endArrow=none;html=1;rounded=0;entryX=1;entryY=0.5;entryDx=0;entryDy=0;exitX=0;exitY=0.5;exitDx=0;exitDy=0;" parent="1" source="6LBf9swrGAn-HD8DNBI7-52" target="6LBf9swrGAn-HD8DNBI7-52" edge="1">
          <mxGeometry width="50" height="50" relative="1" as="geometry">
            <mxPoint x="1405" y="430" as="sourcePoint" />
            <mxPoint x="1455" y="380" as="targetPoint" />
          </mxGeometry>
        </mxCell>
        <mxCell id="6LBf9swrGAn-HD8DNBI7-54" value="" style="endArrow=none;html=1;rounded=0;entryX=0.5;entryY=0;entryDx=0;entryDy=0;" parent="1" target="6LBf9swrGAn-HD8DNBI7-52" edge="1">
          <mxGeometry width="50" height="50" relative="1" as="geometry">
            <mxPoint x="1430" y="400" as="sourcePoint" />
            <mxPoint x="1690" y="350" as="targetPoint" />
          </mxGeometry>
        </mxCell>
        <mxCell id="6LBf9swrGAn-HD8DNBI7-55" value="" style="ellipse;whiteSpace=wrap;html=1;aspect=fixed;" parent="1" vertex="1">
          <mxGeometry x="1510" y="210" width="80" height="80" as="geometry" />
        </mxCell>
        <mxCell id="6LBf9swrGAn-HD8DNBI7-56" value="" style="endArrow=none;html=1;rounded=0;entryX=1;entryY=0.5;entryDx=0;entryDy=0;exitX=0;exitY=0.5;exitDx=0;exitDy=0;" parent="1" source="6LBf9swrGAn-HD8DNBI7-55" target="6LBf9swrGAn-HD8DNBI7-55" edge="1">
          <mxGeometry width="50" height="50" relative="1" as="geometry">
            <mxPoint x="1525" y="280" as="sourcePoint" />
            <mxPoint x="1575" y="230" as="targetPoint" />
          </mxGeometry>
        </mxCell>
        <mxCell id="6LBf9swrGAn-HD8DNBI7-57" value="" style="endArrow=none;html=1;rounded=0;entryX=0.5;entryY=0;entryDx=0;entryDy=0;" parent="1" target="6LBf9swrGAn-HD8DNBI7-55" edge="1">
          <mxGeometry width="50" height="50" relative="1" as="geometry">
            <mxPoint x="1550" y="250" as="sourcePoint" />
            <mxPoint x="1810" y="200" as="targetPoint" />
          </mxGeometry>
        </mxCell>
        <mxCell id="6LBf9swrGAn-HD8DNBI7-58" value="" style="ellipse;whiteSpace=wrap;html=1;aspect=fixed;" parent="1" vertex="1">
          <mxGeometry x="1510" y="520" width="80" height="80" as="geometry" />
        </mxCell>
        <mxCell id="6LBf9swrGAn-HD8DNBI7-59" value="" style="endArrow=none;html=1;rounded=0;entryX=1;entryY=0.5;entryDx=0;entryDy=0;exitX=0;exitY=0.5;exitDx=0;exitDy=0;" parent="1" source="6LBf9swrGAn-HD8DNBI7-58" target="6LBf9swrGAn-HD8DNBI7-58" edge="1">
          <mxGeometry width="50" height="50" relative="1" as="geometry">
            <mxPoint x="1525" y="590" as="sourcePoint" />
            <mxPoint x="1575" y="540" as="targetPoint" />
          </mxGeometry>
        </mxCell>
        <mxCell id="6LBf9swrGAn-HD8DNBI7-60" value="" style="endArrow=none;html=1;rounded=0;entryX=0.5;entryY=0;entryDx=0;entryDy=0;" parent="1" target="6LBf9swrGAn-HD8DNBI7-58" edge="1">
          <mxGeometry width="50" height="50" relative="1" as="geometry">
            <mxPoint x="1550" y="560" as="sourcePoint" />
            <mxPoint x="1810" y="510" as="targetPoint" />
          </mxGeometry>
        </mxCell>
        <mxCell id="6LBf9swrGAn-HD8DNBI7-61" value="" style="ellipse;whiteSpace=wrap;html=1;aspect=fixed;" parent="1" vertex="1">
          <mxGeometry x="1620" y="360" width="80" height="80" as="geometry" />
        </mxCell>
        <mxCell id="6LBf9swrGAn-HD8DNBI7-62" value="" style="endArrow=none;html=1;rounded=0;entryX=1;entryY=0.5;entryDx=0;entryDy=0;exitX=0;exitY=0.5;exitDx=0;exitDy=0;" parent="1" source="6LBf9swrGAn-HD8DNBI7-61" target="6LBf9swrGAn-HD8DNBI7-61" edge="1">
          <mxGeometry width="50" height="50" relative="1" as="geometry">
            <mxPoint x="1635" y="430" as="sourcePoint" />
            <mxPoint x="1685" y="380" as="targetPoint" />
          </mxGeometry>
        </mxCell>
        <mxCell id="6LBf9swrGAn-HD8DNBI7-63" value="" style="endArrow=none;html=1;rounded=0;entryX=0.5;entryY=0;entryDx=0;entryDy=0;" parent="1" target="6LBf9swrGAn-HD8DNBI7-61" edge="1">
          <mxGeometry width="50" height="50" relative="1" as="geometry">
            <mxPoint x="1660" y="400" as="sourcePoint" />
            <mxPoint x="1920" y="350" as="targetPoint" />
          </mxGeometry>
        </mxCell>
        <mxCell id="6LBf9swrGAn-HD8DNBI7-64" value="" style="ellipse;whiteSpace=wrap;html=1;aspect=fixed;" parent="1" vertex="1">
          <mxGeometry x="1770" y="360" width="80" height="80" as="geometry" />
        </mxCell>
        <mxCell id="6LBf9swrGAn-HD8DNBI7-65" value="" style="endArrow=none;html=1;rounded=0;entryX=1;entryY=0.5;entryDx=0;entryDy=0;exitX=0;exitY=0.5;exitDx=0;exitDy=0;" parent="1" source="6LBf9swrGAn-HD8DNBI7-64" target="6LBf9swrGAn-HD8DNBI7-64" edge="1">
          <mxGeometry width="50" height="50" relative="1" as="geometry">
            <mxPoint x="1785" y="430" as="sourcePoint" />
            <mxPoint x="1835" y="380" as="targetPoint" />
          </mxGeometry>
        </mxCell>
        <mxCell id="6LBf9swrGAn-HD8DNBI7-66" value="" style="endArrow=none;html=1;rounded=0;entryX=0.5;entryY=0;entryDx=0;entryDy=0;" parent="1" target="6LBf9swrGAn-HD8DNBI7-64" edge="1">
          <mxGeometry width="50" height="50" relative="1" as="geometry">
            <mxPoint x="1810" y="400" as="sourcePoint" />
            <mxPoint x="2070" y="350" as="targetPoint" />
          </mxGeometry>
        </mxCell>
        <mxCell id="6LBf9swrGAn-HD8DNBI7-67" value="" style="endArrow=classic;html=1;rounded=0;exitX=1;exitY=0.5;exitDx=0;exitDy=0;entryX=0;entryY=0.5;entryDx=0;entryDy=0;strokeColor=#FF0000;" parent="1" source="6LBf9swrGAn-HD8DNBI7-27" target="6LBf9swrGAn-HD8DNBI7-43" edge="1">
          <mxGeometry width="50" height="50" relative="1" as="geometry">
            <mxPoint x="870" y="460" as="sourcePoint" />
            <mxPoint x="980" y="460" as="targetPoint" />
          </mxGeometry>
        </mxCell>
        <mxCell id="6LBf9swrGAn-HD8DNBI7-68" value="" style="endArrow=classic;html=1;rounded=0;exitX=1;exitY=0.5;exitDx=0;exitDy=0;entryX=0;entryY=0.5;entryDx=0;entryDy=0;strokeColor=#FF0000;" parent="1" source="6LBf9swrGAn-HD8DNBI7-43" target="6LBf9swrGAn-HD8DNBI7-46" edge="1">
          <mxGeometry width="50" height="50" relative="1" as="geometry">
            <mxPoint x="680" y="420" as="sourcePoint" />
            <mxPoint x="790" y="420" as="targetPoint" />
          </mxGeometry>
        </mxCell>
        <mxCell id="6LBf9swrGAn-HD8DNBI7-69" value="" style="endArrow=classic;html=1;rounded=0;exitX=1;exitY=0.5;exitDx=0;exitDy=0;entryX=0;entryY=0.5;entryDx=0;entryDy=0;strokeColor=#FF0000;" parent="1" source="6LBf9swrGAn-HD8DNBI7-46" target="6LBf9swrGAn-HD8DNBI7-49" edge="1">
          <mxGeometry width="50" height="50" relative="1" as="geometry">
            <mxPoint x="690" y="430" as="sourcePoint" />
            <mxPoint x="800" y="430" as="targetPoint" />
          </mxGeometry>
        </mxCell>
        <mxCell id="6LBf9swrGAn-HD8DNBI7-70" value="" style="endArrow=classic;html=1;rounded=0;entryX=0;entryY=0.5;entryDx=0;entryDy=0;exitX=1;exitY=0.5;exitDx=0;exitDy=0;strokeColor=#FF0000;" parent="1" source="6LBf9swrGAn-HD8DNBI7-49" target="6LBf9swrGAn-HD8DNBI7-52" edge="1">
          <mxGeometry width="50" height="50" relative="1" as="geometry">
            <mxPoint x="1310" y="400" as="sourcePoint" />
            <mxPoint x="1400" y="450" as="targetPoint" />
          </mxGeometry>
        </mxCell>
        <mxCell id="6LBf9swrGAn-HD8DNBI7-71" value="" style="endArrow=classic;html=1;rounded=0;exitX=1;exitY=0;exitDx=0;exitDy=0;entryX=0;entryY=1;entryDx=0;entryDy=0;" parent="1" source="6LBf9swrGAn-HD8DNBI7-52" target="6LBf9swrGAn-HD8DNBI7-55" edge="1">
          <mxGeometry width="50" height="50" relative="1" as="geometry">
            <mxPoint x="1170" y="420" as="sourcePoint" />
            <mxPoint x="1250" y="420" as="targetPoint" />
          </mxGeometry>
        </mxCell>
        <mxCell id="6LBf9swrGAn-HD8DNBI7-72" value="" style="endArrow=classic;html=1;rounded=0;exitX=1;exitY=1;exitDx=0;exitDy=0;entryX=0;entryY=0;entryDx=0;entryDy=0;strokeColor=#FF0000;" parent="1" source="6LBf9swrGAn-HD8DNBI7-52" target="6LBf9swrGAn-HD8DNBI7-58" edge="1">
          <mxGeometry width="50" height="50" relative="1" as="geometry">
            <mxPoint x="1468" y="382" as="sourcePoint" />
            <mxPoint x="1522" y="288" as="targetPoint" />
          </mxGeometry>
        </mxCell>
        <mxCell id="6LBf9swrGAn-HD8DNBI7-73" value="" style="endArrow=classic;html=1;rounded=0;entryX=0;entryY=0;entryDx=0;entryDy=0;exitX=1;exitY=1;exitDx=0;exitDy=0;" parent="1" source="6LBf9swrGAn-HD8DNBI7-55" target="6LBf9swrGAn-HD8DNBI7-61" edge="1">
          <mxGeometry width="50" height="50" relative="1" as="geometry">
            <mxPoint x="1320" y="410" as="sourcePoint" />
            <mxPoint x="1400" y="410" as="targetPoint" />
          </mxGeometry>
        </mxCell>
        <mxCell id="6LBf9swrGAn-HD8DNBI7-74" value="" style="endArrow=classic;html=1;rounded=0;entryX=0;entryY=1;entryDx=0;entryDy=0;exitX=1;exitY=0;exitDx=0;exitDy=0;strokeColor=#FF0000;" parent="1" source="6LBf9swrGAn-HD8DNBI7-58" target="6LBf9swrGAn-HD8DNBI7-61" edge="1">
          <mxGeometry width="50" height="50" relative="1" as="geometry">
            <mxPoint x="1588" y="288" as="sourcePoint" />
            <mxPoint x="1642" y="382" as="targetPoint" />
          </mxGeometry>
        </mxCell>
        <mxCell id="6LBf9swrGAn-HD8DNBI7-75" value="" style="endArrow=classic;html=1;rounded=0;entryX=0;entryY=0.5;entryDx=0;entryDy=0;exitX=1;exitY=0.5;exitDx=0;exitDy=0;strokeColor=#FF0000;" parent="1" source="6LBf9swrGAn-HD8DNBI7-61" target="6LBf9swrGAn-HD8DNBI7-64" edge="1">
          <mxGeometry width="50" height="50" relative="1" as="geometry">
            <mxPoint x="1588" y="542" as="sourcePoint" />
            <mxPoint x="1642" y="438" as="targetPoint" />
          </mxGeometry>
        </mxCell>
        <mxCell id="6LBf9swrGAn-HD8DNBI7-76" value="3" style="text;html=1;align=center;verticalAlign=middle;whiteSpace=wrap;rounded=0;fontSize=22;" parent="1" vertex="1">
          <mxGeometry x="100" y="370" width="60" height="30" as="geometry" />
        </mxCell>
        <mxCell id="6LBf9swrGAn-HD8DNBI7-77" value="2" style="text;html=1;align=center;verticalAlign=middle;whiteSpace=wrap;rounded=0;fontSize=22;" parent="1" vertex="1">
          <mxGeometry x="120" y="410" width="60" height="30" as="geometry" />
        </mxCell>
        <mxCell id="6LBf9swrGAn-HD8DNBI7-78" value="3" style="text;html=1;align=center;verticalAlign=middle;whiteSpace=wrap;rounded=0;fontSize=22;" parent="1" vertex="1">
          <mxGeometry x="280" y="410" width="60" height="30" as="geometry" />
        </mxCell>
        <mxCell id="6LBf9swrGAn-HD8DNBI7-79" value="4" style="text;html=1;align=center;verticalAlign=middle;whiteSpace=wrap;rounded=0;fontSize=22;" parent="1" vertex="1">
          <mxGeometry x="280" y="260" width="60" height="30" as="geometry" />
        </mxCell>
        <mxCell id="6LBf9swrGAn-HD8DNBI7-80" value="5" style="text;html=1;align=center;verticalAlign=middle;whiteSpace=wrap;rounded=0;fontSize=22;" parent="1" vertex="1">
          <mxGeometry x="440" y="410" width="60" height="30" as="geometry" />
        </mxCell>
        <mxCell id="6LBf9swrGAn-HD8DNBI7-81" value="6" style="text;html=1;align=center;verticalAlign=middle;whiteSpace=wrap;rounded=0;fontSize=22;" parent="1" vertex="1">
          <mxGeometry x="590" y="410" width="60" height="30" as="geometry" />
        </mxCell>
        <mxCell id="6LBf9swrGAn-HD8DNBI7-82" value="7" style="text;html=1;align=center;verticalAlign=middle;whiteSpace=wrap;rounded=0;fontSize=22;" parent="1" vertex="1">
          <mxGeometry x="720" y="260" width="60" height="30" as="geometry" />
        </mxCell>
        <mxCell id="6LBf9swrGAn-HD8DNBI7-83" value="8" style="text;html=1;align=center;verticalAlign=middle;whiteSpace=wrap;rounded=0;fontSize=22;" parent="1" vertex="1">
          <mxGeometry x="780" y="410" width="60" height="30" as="geometry" />
        </mxCell>
        <mxCell id="6LBf9swrGAn-HD8DNBI7-84" value="10" style="text;html=1;align=center;verticalAlign=middle;whiteSpace=wrap;rounded=0;fontSize=22;" parent="1" vertex="1">
          <mxGeometry x="720" y="570" width="60" height="30" as="geometry" />
        </mxCell>
        <mxCell id="6LBf9swrGAn-HD8DNBI7-85" value="9" style="text;html=1;align=center;verticalAlign=middle;whiteSpace=wrap;rounded=0;fontSize=22;" parent="1" vertex="1">
          <mxGeometry x="930" y="410" width="60" height="30" as="geometry" />
        </mxCell>
        <mxCell id="6LBf9swrGAn-HD8DNBI7-86" value="11" style="text;html=1;align=center;verticalAlign=middle;whiteSpace=wrap;rounded=0;fontSize=22;" parent="1" vertex="1">
          <mxGeometry x="1080" y="410" width="60" height="30" as="geometry" />
        </mxCell>
        <mxCell id="6LBf9swrGAn-HD8DNBI7-87" value="12" style="text;html=1;align=center;verticalAlign=middle;whiteSpace=wrap;rounded=0;fontSize=22;" parent="1" vertex="1">
          <mxGeometry x="1240" y="410" width="60" height="30" as="geometry" />
        </mxCell>
        <mxCell id="6LBf9swrGAn-HD8DNBI7-88" value="13" style="text;html=1;align=center;verticalAlign=middle;whiteSpace=wrap;rounded=0;fontSize=22;" parent="1" vertex="1">
          <mxGeometry x="1400" y="410" width="60" height="30" as="geometry" />
        </mxCell>
        <mxCell id="6LBf9swrGAn-HD8DNBI7-89" value="15" style="text;html=1;align=center;verticalAlign=middle;whiteSpace=wrap;rounded=0;fontSize=22;" parent="1" vertex="1">
          <mxGeometry x="1520" y="260" width="60" height="30" as="geometry" />
        </mxCell>
        <mxCell id="6LBf9swrGAn-HD8DNBI7-90" value="14" style="text;html=1;align=center;verticalAlign=middle;whiteSpace=wrap;rounded=0;fontSize=22;" parent="1" vertex="1">
          <mxGeometry x="1520" y="570" width="60" height="30" as="geometry" />
        </mxCell>
        <mxCell id="6LBf9swrGAn-HD8DNBI7-91" value="16" style="text;html=1;align=center;verticalAlign=middle;whiteSpace=wrap;rounded=0;fontSize=22;" parent="1" vertex="1">
          <mxGeometry x="1630" y="410" width="60" height="30" as="geometry" />
        </mxCell>
        <mxCell id="6LBf9swrGAn-HD8DNBI7-92" value="17" style="text;html=1;align=center;verticalAlign=middle;whiteSpace=wrap;rounded=0;fontSize=22;" parent="1" vertex="1">
          <mxGeometry x="1780" y="410" width="60" height="30" as="geometry" />
        </mxCell>
        <mxCell id="6LBf9swrGAn-HD8DNBI7-93" value="A&lt;span style=&quot;background-color: initial;&quot;&gt;&amp;nbsp;= 3&lt;/span&gt;" style="text;html=1;align=center;verticalAlign=middle;whiteSpace=wrap;rounded=0;" parent="1" vertex="1">
          <mxGeometry x="40" y="370" width="60" height="30" as="geometry" />
        </mxCell>
        <mxCell id="6LBf9swrGAn-HD8DNBI7-94" value="9" style="text;html=1;align=center;verticalAlign=middle;whiteSpace=wrap;rounded=0;fontSize=22;" parent="1" vertex="1">
          <mxGeometry x="260" y="220" width="60" height="30" as="geometry" />
        </mxCell>
        <mxCell id="6LBf9swrGAn-HD8DNBI7-95" value="&lt;span style=&quot;background-color: initial;&quot;&gt;B = 4&lt;/span&gt;" style="text;html=1;align=center;verticalAlign=middle;whiteSpace=wrap;rounded=0;" parent="1" vertex="1">
          <mxGeometry x="170" y="290" width="60" height="30" as="geometry" />
        </mxCell>
        <mxCell id="6LBf9swrGAn-HD8DNBI7-96" value="&lt;span style=&quot;background-color: initial;&quot;&gt;C = 6&lt;/span&gt;" style="text;html=1;align=center;verticalAlign=middle;whiteSpace=wrap;rounded=0;" parent="1" vertex="1">
          <mxGeometry x="210" y="370" width="60" height="30" as="geometry" />
        </mxCell>
        <mxCell id="6LBf9swrGAn-HD8DNBI7-97" value="" style="endArrow=classic;html=1;rounded=0;dashed=1;entryX=0.5;entryY=1;entryDx=0;entryDy=0;fontSize=11;strokeColor=#FF0000;" parent="1" target="6LBf9swrGAn-HD8DNBI7-79" edge="1">
          <mxGeometry width="50" height="50" relative="1" as="geometry">
            <mxPoint x="310" y="360" as="sourcePoint" />
            <mxPoint x="400" y="230" as="targetPoint" />
          </mxGeometry>
        </mxCell>
        <mxCell id="6LBf9swrGAn-HD8DNBI7-98" value="&lt;span style=&quot;background-color: initial;&quot;&gt;D = 2&lt;/span&gt;" style="text;html=1;align=center;verticalAlign=middle;whiteSpace=wrap;rounded=0;" parent="1" vertex="1">
          <mxGeometry x="380" y="300" width="60" height="30" as="geometry" />
        </mxCell>
        <mxCell id="6LBf9swrGAn-HD8DNBI7-99" value="11" style="text;html=1;align=center;verticalAlign=middle;whiteSpace=wrap;rounded=0;fontSize=22;" parent="1" vertex="1">
          <mxGeometry x="420" y="370" width="60" height="30" as="geometry" />
        </mxCell>
        <mxCell id="6LBf9swrGAn-HD8DNBI7-100" value="21" style="text;html=1;align=center;verticalAlign=middle;whiteSpace=wrap;rounded=0;fontSize=22;" parent="1" vertex="1">
          <mxGeometry x="570" y="370" width="60" height="30" as="geometry" />
        </mxCell>
        <mxCell id="6LBf9swrGAn-HD8DNBI7-101" value="&lt;span style=&quot;background-color: initial;&quot;&gt;E = 10&lt;/span&gt;" style="text;html=1;align=center;verticalAlign=middle;whiteSpace=wrap;rounded=0;" parent="1" vertex="1">
          <mxGeometry x="510" y="340" width="60" height="30" as="geometry" />
        </mxCell>
        <mxCell id="6LBf9swrGAn-HD8DNBI7-102" value="&lt;span style=&quot;background-color: initial;&quot;&gt;F = 4&lt;/span&gt;" style="text;html=1;align=center;verticalAlign=middle;whiteSpace=wrap;rounded=0;" parent="1" vertex="1">
          <mxGeometry x="630" y="300" width="60" height="30" as="geometry" />
        </mxCell>
        <mxCell id="6LBf9swrGAn-HD8DNBI7-104" value="25" style="text;html=1;align=center;verticalAlign=middle;whiteSpace=wrap;rounded=0;fontSize=22;" parent="1" vertex="1">
          <mxGeometry x="700" y="220" width="60" height="30" as="geometry" />
        </mxCell>
        <mxCell id="6LBf9swrGAn-HD8DNBI7-106" value="28" style="text;html=1;align=center;verticalAlign=middle;whiteSpace=wrap;rounded=0;fontSize=22;" parent="1" vertex="1">
          <mxGeometry x="700" y="530" width="60" height="30" as="geometry" />
        </mxCell>
        <mxCell id="6LBf9swrGAn-HD8DNBI7-107" value="" style="endArrow=classic;html=1;rounded=0;dashed=1;exitX=1;exitY=0.75;exitDx=0;exitDy=0;entryX=0.5;entryY=0;entryDx=0;entryDy=0;" parent="1" source="6LBf9swrGAn-HD8DNBI7-82" target="6LBf9swrGAn-HD8DNBI7-27" edge="1">
          <mxGeometry width="50" height="50" relative="1" as="geometry">
            <mxPoint x="800" y="270" as="sourcePoint" />
            <mxPoint x="800" y="340" as="targetPoint" />
          </mxGeometry>
        </mxCell>
        <mxCell id="6LBf9swrGAn-HD8DNBI7-108" value="" style="endArrow=classic;html=1;rounded=0;dashed=1;exitX=1;exitY=0;exitDx=0;exitDy=0;entryX=0.425;entryY=0.988;entryDx=0;entryDy=0;entryPerimeter=0;strokeColor=#FF0000;" parent="1" source="6LBf9swrGAn-HD8DNBI7-33" target="6LBf9swrGAn-HD8DNBI7-27" edge="1">
          <mxGeometry width="50" height="50" relative="1" as="geometry">
            <mxPoint x="790" y="293" as="sourcePoint" />
            <mxPoint x="830" y="480" as="targetPoint" />
          </mxGeometry>
        </mxCell>
        <mxCell id="6LBf9swrGAn-HD8DNBI7-109" value="&lt;span style=&quot;background-color: initial;&quot;&gt;G = 3&lt;/span&gt;" style="text;html=1;align=center;verticalAlign=middle;whiteSpace=wrap;rounded=0;" parent="1" vertex="1">
          <mxGeometry x="690" y="370" width="60" height="30" as="geometry" />
        </mxCell>
        <mxCell id="6LBf9swrGAn-HD8DNBI7-110" value="9" style="text;html=1;align=center;verticalAlign=middle;whiteSpace=wrap;rounded=0;fontSize=22;" parent="1" vertex="1">
          <mxGeometry x="260" y="370" width="60" height="30" as="geometry" />
        </mxCell>
        <mxCell id="NgbG2q0fzwfk-Y-bPLzw-1" value="" style="ellipse;whiteSpace=wrap;html=1;aspect=fixed;" vertex="1" parent="1">
          <mxGeometry x="-50" y="360" width="80" height="80" as="geometry" />
        </mxCell>
        <mxCell id="NgbG2q0fzwfk-Y-bPLzw-2" value="" style="endArrow=none;html=1;rounded=0;entryX=1;entryY=0.5;entryDx=0;entryDy=0;exitX=0;exitY=0.5;exitDx=0;exitDy=0;" edge="1" parent="1" source="NgbG2q0fzwfk-Y-bPLzw-1" target="NgbG2q0fzwfk-Y-bPLzw-1">
          <mxGeometry width="50" height="50" relative="1" as="geometry">
            <mxPoint x="-35" y="430" as="sourcePoint" />
            <mxPoint x="15" y="380" as="targetPoint" />
          </mxGeometry>
        </mxCell>
        <mxCell id="NgbG2q0fzwfk-Y-bPLzw-3" value="" style="endArrow=none;html=1;rounded=0;entryX=0.5;entryY=0;entryDx=0;entryDy=0;" edge="1" parent="1" target="NgbG2q0fzwfk-Y-bPLzw-1">
          <mxGeometry width="50" height="50" relative="1" as="geometry">
            <mxPoint x="-10" y="400" as="sourcePoint" />
            <mxPoint x="250" y="350" as="targetPoint" />
          </mxGeometry>
        </mxCell>
        <mxCell id="NgbG2q0fzwfk-Y-bPLzw-4" value="1" style="text;html=1;align=center;verticalAlign=middle;whiteSpace=wrap;rounded=0;fontSize=22;" vertex="1" parent="1">
          <mxGeometry x="-40" y="410" width="60" height="30" as="geometry" />
        </mxCell>
        <mxCell id="NgbG2q0fzwfk-Y-bPLzw-5" value="" style="endArrow=classic;html=1;rounded=0;entryX=0.25;entryY=1;entryDx=0;entryDy=0;strokeColor=#FF0000;shadow=1;fontSize=18;" edge="1" parent="1" target="6LBf9swrGAn-HD8DNBI7-76">
          <mxGeometry width="50" height="50" relative="1" as="geometry">
            <mxPoint x="30" y="400" as="sourcePoint" />
            <mxPoint x="732" y="288" as="targetPoint" />
          </mxGeometry>
        </mxCell>
        <mxCell id="NgbG2q0fzwfk-Y-bPLzw-6" value="0" style="text;html=1;align=center;verticalAlign=middle;whiteSpace=wrap;rounded=0;fontSize=22;" vertex="1" parent="1">
          <mxGeometry x="-60" y="370" width="60" height="30" as="geometry" />
        </mxCell>
        <mxCell id="NgbG2q0fzwfk-Y-bPLzw-7" value="&lt;span style=&quot;background-color: initial;&quot;&gt;I = 7&lt;/span&gt;" style="text;html=1;align=center;verticalAlign=middle;whiteSpace=wrap;rounded=0;" vertex="1" parent="1">
          <mxGeometry x="630" y="480" width="60" height="30" as="geometry" />
        </mxCell>
        <mxCell id="NgbG2q0fzwfk-Y-bPLzw-8" value="&lt;span style=&quot;background-color: initial;&quot;&gt;H = 2&lt;/span&gt;" style="text;html=1;align=center;verticalAlign=middle;whiteSpace=wrap;rounded=0;" vertex="1" parent="1">
          <mxGeometry x="850" y="367.5" width="60" height="30" as="geometry" />
        </mxCell>
        <mxCell id="NgbG2q0fzwfk-Y-bPLzw-9" value="&lt;span style=&quot;background-color: initial;&quot;&gt;J = 25&lt;/span&gt;" style="text;html=1;align=center;verticalAlign=middle;whiteSpace=wrap;rounded=0;" vertex="1" parent="1">
          <mxGeometry x="1010" y="367.5" width="60" height="30" as="geometry" />
        </mxCell>
        <mxCell id="NgbG2q0fzwfk-Y-bPLzw-10" value="&lt;span style=&quot;background-color: initial;&quot;&gt;K = 10&lt;/span&gt;" style="text;html=1;align=center;verticalAlign=middle;whiteSpace=wrap;rounded=0;" vertex="1" parent="1">
          <mxGeometry x="1160" y="367.5" width="60" height="30" as="geometry" />
        </mxCell>
        <mxCell id="NgbG2q0fzwfk-Y-bPLzw-11" value="&lt;span style=&quot;background-color: initial;&quot;&gt;L = 5&lt;/span&gt;" style="text;html=1;align=center;verticalAlign=middle;whiteSpace=wrap;rounded=0;" vertex="1" parent="1">
          <mxGeometry x="1320" y="367.5" width="60" height="30" as="geometry" />
        </mxCell>
        <mxCell id="NgbG2q0fzwfk-Y-bPLzw-12" value="&lt;span style=&quot;background-color: initial;&quot;&gt;N = 5&lt;/span&gt;" style="text;html=1;align=center;verticalAlign=middle;whiteSpace=wrap;rounded=0;" vertex="1" parent="1">
          <mxGeometry x="1440" y="300" width="60" height="30" as="geometry" />
        </mxCell>
        <mxCell id="NgbG2q0fzwfk-Y-bPLzw-13" value="&lt;span style=&quot;background-color: initial;&quot;&gt;M = 15&lt;/span&gt;" style="text;html=1;align=center;verticalAlign=middle;whiteSpace=wrap;rounded=0;" vertex="1" parent="1">
          <mxGeometry x="1430" y="480" width="60" height="30" as="geometry" />
        </mxCell>
        <mxCell id="NgbG2q0fzwfk-Y-bPLzw-14" value="&lt;span style=&quot;background-color: initial;&quot;&gt;O = 2&lt;/span&gt;" style="text;html=1;align=center;verticalAlign=middle;whiteSpace=wrap;rounded=0;" vertex="1" parent="1">
          <mxGeometry x="1600" y="300" width="60" height="30" as="geometry" />
        </mxCell>
        <mxCell id="NgbG2q0fzwfk-Y-bPLzw-15" value="&lt;span style=&quot;background-color: initial;&quot;&gt;O = 2&lt;/span&gt;" style="text;html=1;align=center;verticalAlign=middle;whiteSpace=wrap;rounded=0;" vertex="1" parent="1">
          <mxGeometry x="1560" y="440" width="60" height="30" as="geometry" />
        </mxCell>
        <mxCell id="NgbG2q0fzwfk-Y-bPLzw-16" value="&lt;span style=&quot;background-color: initial;&quot;&gt;D = 2&lt;/span&gt;" style="text;html=1;align=center;verticalAlign=middle;whiteSpace=wrap;rounded=0;" vertex="1" parent="1">
          <mxGeometry x="350" y="460" width="60" height="30" as="geometry" />
        </mxCell>
        <mxCell id="NgbG2q0fzwfk-Y-bPLzw-17" value="&lt;span style=&quot;background-color: initial;&quot;&gt;P = 15&lt;/span&gt;" style="text;html=1;align=center;verticalAlign=middle;whiteSpace=wrap;rounded=0;" vertex="1" parent="1">
          <mxGeometry x="1710" y="367.5" width="60" height="30" as="geometry" />
        </mxCell>
        <mxCell id="NgbG2q0fzwfk-Y-bPLzw-18" value="5" style="text;html=1;align=center;verticalAlign=middle;whiteSpace=wrap;rounded=0;fontSize=17;fontStyle=0;fontColor=#FF3333;" vertex="1" parent="1">
          <mxGeometry x="390" y="420" width="60" height="30" as="geometry" />
        </mxCell>
        <mxCell id="NgbG2q0fzwfk-Y-bPLzw-19" value="30" style="text;html=1;align=center;verticalAlign=middle;whiteSpace=wrap;rounded=0;fontSize=22;" vertex="1" parent="1">
          <mxGeometry x="910" y="370" width="60" height="30" as="geometry" />
        </mxCell>
        <mxCell id="NgbG2q0fzwfk-Y-bPLzw-22" value="55" style="text;html=1;align=center;verticalAlign=middle;whiteSpace=wrap;rounded=0;fontSize=22;" vertex="1" parent="1">
          <mxGeometry x="1060" y="370" width="60" height="30" as="geometry" />
        </mxCell>
        <mxCell id="NgbG2q0fzwfk-Y-bPLzw-23" value="66" style="text;html=1;align=center;verticalAlign=middle;whiteSpace=wrap;rounded=0;fontSize=22;" vertex="1" parent="1">
          <mxGeometry x="1220" y="370" width="60" height="30" as="geometry" />
        </mxCell>
        <mxCell id="NgbG2q0fzwfk-Y-bPLzw-24" value="71" style="text;html=1;align=center;verticalAlign=middle;whiteSpace=wrap;rounded=0;fontSize=22;" vertex="1" parent="1">
          <mxGeometry x="1380" y="370" width="60" height="30" as="geometry" />
        </mxCell>
        <mxCell id="NgbG2q0fzwfk-Y-bPLzw-25" value="76" style="text;html=1;align=center;verticalAlign=middle;whiteSpace=wrap;rounded=0;fontSize=22;" vertex="1" parent="1">
          <mxGeometry x="1500" y="220" width="60" height="30" as="geometry" />
        </mxCell>
        <mxCell id="NgbG2q0fzwfk-Y-bPLzw-26" value="86" style="text;html=1;align=center;verticalAlign=middle;whiteSpace=wrap;rounded=0;fontSize=22;" vertex="1" parent="1">
          <mxGeometry x="1500" y="530" width="60" height="30" as="geometry" />
        </mxCell>
        <mxCell id="NgbG2q0fzwfk-Y-bPLzw-27" value="88" style="text;html=1;align=center;verticalAlign=middle;whiteSpace=wrap;rounded=0;fontSize=22;" vertex="1" parent="1">
          <mxGeometry x="1610" y="370" width="60" height="30" as="geometry" />
        </mxCell>
        <mxCell id="NgbG2q0fzwfk-Y-bPLzw-28" value="&lt;div style=&quot;text-align: center;&quot;&gt;&lt;span style=&quot;background-color: initial; font-size: 22px;&quot;&gt;103&lt;/span&gt;&lt;/div&gt;" style="text;whiteSpace=wrap;html=1;" vertex="1" parent="1">
          <mxGeometry x="1770" y="367.5" width="40" height="35" as="geometry" />
        </mxCell>
        <mxCell id="NgbG2q0fzwfk-Y-bPLzw-30" value="9" style="text;html=1;align=center;verticalAlign=middle;whiteSpace=wrap;rounded=0;fontSize=17;fontStyle=0;fontColor=#FF3333;" vertex="1" parent="1">
          <mxGeometry x="260" y="290" width="60" height="30" as="geometry" />
        </mxCell>
        <mxCell id="NgbG2q0fzwfk-Y-bPLzw-31" value="25" style="text;html=1;align=center;verticalAlign=middle;whiteSpace=wrap;rounded=0;fontSize=17;fontStyle=0;fontColor=#FF3333;" vertex="1" parent="1">
          <mxGeometry x="790" y="320" width="60" height="30" as="geometry" />
        </mxCell>
        <mxCell id="NgbG2q0fzwfk-Y-bPLzw-32" value="28" style="text;html=1;align=center;verticalAlign=middle;whiteSpace=wrap;rounded=0;fontSize=17;fontStyle=0;fontColor=#FF3333;" vertex="1" parent="1">
          <mxGeometry x="750" y="440" width="60" height="30" as="geometry" />
        </mxCell>
        <mxCell id="NgbG2q0fzwfk-Y-bPLzw-33" value="7" style="text;html=1;align=center;verticalAlign=middle;whiteSpace=wrap;rounded=0;fontSize=17;fontStyle=0;fontColor=#FF3333;" vertex="1" parent="1">
          <mxGeometry x="220" y="250" width="60" height="30" as="geometry" />
        </mxCell>
        <mxCell id="NgbG2q0fzwfk-Y-bPLzw-34" value="24" style="text;html=1;align=center;verticalAlign=middle;whiteSpace=wrap;rounded=0;fontSize=17;fontStyle=0;fontColor=#FF3333;" vertex="1" parent="1">
          <mxGeometry x="730" y="360" width="60" height="30" as="geometry" />
        </mxCell>
        <mxCell id="NgbG2q0fzwfk-Y-bPLzw-37" value="88" style="text;html=1;align=center;verticalAlign=middle;whiteSpace=wrap;rounded=0;fontSize=17;fontStyle=0;fontColor=#FF3333;" vertex="1" parent="1">
          <mxGeometry x="1610" y="450" width="60" height="30" as="geometry" />
        </mxCell>
        <mxCell id="NgbG2q0fzwfk-Y-bPLzw-38" value="78" style="text;html=1;align=center;verticalAlign=middle;whiteSpace=wrap;rounded=0;fontSize=17;fontStyle=0;fontColor=#FF3333;" vertex="1" parent="1">
          <mxGeometry x="1580" y="350" width="60" height="30" as="geometry" />
        </mxCell>
        <mxCell id="NgbG2q0fzwfk-Y-bPLzw-39" value="&lt;div style=&quot;text-align: center;&quot;&gt;&lt;span style=&quot;background-color: initial; font-size: 22px;&quot;&gt;103&lt;/span&gt;&lt;/div&gt;" style="text;whiteSpace=wrap;html=1;" vertex="1" parent="1">
          <mxGeometry x="1810" y="367.5" width="40" height="35" as="geometry" />
        </mxCell>
        <mxCell id="NgbG2q0fzwfk-Y-bPLzw-40" value="88" style="text;html=1;align=center;verticalAlign=middle;whiteSpace=wrap;rounded=0;fontSize=22;" vertex="1" parent="1">
          <mxGeometry x="1650" y="370" width="60" height="30" as="geometry" />
        </mxCell>
        <mxCell id="NgbG2q0fzwfk-Y-bPLzw-41" value="86" style="text;html=1;align=center;verticalAlign=middle;whiteSpace=wrap;rounded=0;fontSize=22;" vertex="1" parent="1">
          <mxGeometry x="1540" y="220" width="60" height="30" as="geometry" />
        </mxCell>
        <mxCell id="NgbG2q0fzwfk-Y-bPLzw-42" value="86" style="text;html=1;align=center;verticalAlign=middle;whiteSpace=wrap;rounded=0;fontSize=22;" vertex="1" parent="1">
          <mxGeometry x="1540" y="530" width="60" height="30" as="geometry" />
        </mxCell>
        <mxCell id="NgbG2q0fzwfk-Y-bPLzw-43" value="71" style="text;html=1;align=center;verticalAlign=middle;whiteSpace=wrap;rounded=0;fontSize=22;" vertex="1" parent="1">
          <mxGeometry x="1420" y="370" width="60" height="30" as="geometry" />
        </mxCell>
        <mxCell id="NgbG2q0fzwfk-Y-bPLzw-44" value="66" style="text;html=1;align=center;verticalAlign=middle;whiteSpace=wrap;rounded=0;fontSize=22;" vertex="1" parent="1">
          <mxGeometry x="1260" y="370" width="60" height="30" as="geometry" />
        </mxCell>
        <mxCell id="NgbG2q0fzwfk-Y-bPLzw-45" value="55" style="text;html=1;align=center;verticalAlign=middle;whiteSpace=wrap;rounded=0;fontSize=22;" vertex="1" parent="1">
          <mxGeometry x="1100" y="370" width="60" height="30" as="geometry" />
        </mxCell>
        <mxCell id="NgbG2q0fzwfk-Y-bPLzw-46" value="30" style="text;html=1;align=center;verticalAlign=middle;whiteSpace=wrap;rounded=0;fontSize=22;" vertex="1" parent="1">
          <mxGeometry x="950" y="370" width="60" height="30" as="geometry" />
        </mxCell>
        <mxCell id="NgbG2q0fzwfk-Y-bPLzw-47" value="28" style="text;html=1;align=center;verticalAlign=middle;whiteSpace=wrap;rounded=0;fontSize=22;" vertex="1" parent="1">
          <mxGeometry x="760" y="370" width="60" height="30" as="geometry" />
        </mxCell>
        <mxCell id="NgbG2q0fzwfk-Y-bPLzw-48" value="28" style="text;html=1;align=center;verticalAlign=middle;whiteSpace=wrap;rounded=0;fontSize=22;" vertex="1" parent="1">
          <mxGeometry x="800" y="370" width="60" height="30" as="geometry" />
        </mxCell>
        <mxCell id="NgbG2q0fzwfk-Y-bPLzw-49" value="28" style="text;html=1;align=center;verticalAlign=middle;whiteSpace=wrap;rounded=0;fontSize=22;" vertex="1" parent="1">
          <mxGeometry x="740" y="220" width="60" height="30" as="geometry" />
        </mxCell>
        <mxCell id="NgbG2q0fzwfk-Y-bPLzw-50" value="28" style="text;html=1;align=center;verticalAlign=middle;whiteSpace=wrap;rounded=0;fontSize=22;" vertex="1" parent="1">
          <mxGeometry x="740" y="530" width="60" height="30" as="geometry" />
        </mxCell>
        <mxCell id="NgbG2q0fzwfk-Y-bPLzw-51" value="21" style="text;html=1;align=center;verticalAlign=middle;whiteSpace=wrap;rounded=0;fontSize=22;" vertex="1" parent="1">
          <mxGeometry x="610" y="370" width="60" height="30" as="geometry" />
        </mxCell>
        <mxCell id="NgbG2q0fzwfk-Y-bPLzw-52" value="21" style="text;html=1;align=center;verticalAlign=middle;whiteSpace=wrap;rounded=0;fontSize=17;fontStyle=0;fontColor=#FF3333;" vertex="1" parent="1">
          <mxGeometry x="640" y="420" width="60" height="30" as="geometry" />
        </mxCell>
        <mxCell id="NgbG2q0fzwfk-Y-bPLzw-54" value="24" style="text;html=1;align=center;verticalAlign=middle;whiteSpace=wrap;rounded=0;fontSize=17;fontStyle=0;fontColor=#FF3333;" vertex="1" parent="1">
          <mxGeometry x="610" y="330" width="60" height="30" as="geometry" />
        </mxCell>
        <mxCell id="NgbG2q0fzwfk-Y-bPLzw-55" value="11" style="text;html=1;align=center;verticalAlign=middle;whiteSpace=wrap;rounded=0;fontSize=22;" vertex="1" parent="1">
          <mxGeometry x="460" y="370" width="60" height="30" as="geometry" />
        </mxCell>
        <mxCell id="NgbG2q0fzwfk-Y-bPLzw-56" value="9" style="text;html=1;align=center;verticalAlign=middle;whiteSpace=wrap;rounded=0;fontSize=22;" vertex="1" parent="1">
          <mxGeometry x="300" y="220" width="60" height="30" as="geometry" />
        </mxCell>
        <mxCell id="NgbG2q0fzwfk-Y-bPLzw-58" value="9" style="text;html=1;align=center;verticalAlign=middle;whiteSpace=wrap;rounded=0;fontSize=22;" vertex="1" parent="1">
          <mxGeometry x="300" y="370" width="60" height="30" as="geometry" />
        </mxCell>
        <mxCell id="NgbG2q0fzwfk-Y-bPLzw-59" value="3" style="text;html=1;align=center;verticalAlign=middle;whiteSpace=wrap;rounded=0;fontSize=22;" vertex="1" parent="1">
          <mxGeometry x="140" y="370" width="60" height="30" as="geometry" />
        </mxCell>
        <mxCell id="NgbG2q0fzwfk-Y-bPLzw-60" value="0" style="text;html=1;align=center;verticalAlign=middle;whiteSpace=wrap;rounded=0;fontSize=22;" vertex="1" parent="1">
          <mxGeometry x="-20" y="370" width="60" height="30" as="geometry" />
        </mxCell>
        <mxCell id="NgbG2q0fzwfk-Y-bPLzw-61" value="3" style="text;html=1;align=center;verticalAlign=middle;whiteSpace=wrap;rounded=0;fontSize=17;fontStyle=0;fontColor=#FF3333;" vertex="1" parent="1">
          <mxGeometry x="170" y="360" width="60" height="30" as="geometry" />
        </mxCell>
        <mxCell id="NgbG2q0fzwfk-Y-bPLzw-62" value="5" style="text;html=1;align=center;verticalAlign=middle;whiteSpace=wrap;rounded=0;fontSize=17;fontStyle=0;fontColor=#FF3333;" vertex="1" parent="1">
          <mxGeometry x="150" y="330" width="60" height="30" as="geometry" />
        </mxCell>
        <mxCell id="NgbG2q0fzwfk-Y-bPLzw-63" value="9" style="text;html=1;align=center;verticalAlign=middle;whiteSpace=wrap;rounded=0;fontSize=17;fontStyle=0;fontColor=#FF3333;" vertex="1" parent="1">
          <mxGeometry x="170" y="402.5" width="60" height="30" as="geometry" />
        </mxCell>
        <mxCell id="NgbG2q0fzwfk-Y-bPLzw-64" value="11" style="text;html=1;align=center;verticalAlign=middle;whiteSpace=wrap;rounded=0;fontSize=17;fontStyle=0;fontColor=#FF3333;" vertex="1" parent="1">
          <mxGeometry x="384" y="360" width="60" height="30" as="geometry" />
        </mxCell>
        <mxCell id="NgbG2q0fzwfk-Y-bPLzw-65" value="Camino Critico" style="text;html=1;align=center;verticalAlign=middle;whiteSpace=wrap;rounded=0;fontStyle=1;fontSize=20;" vertex="1" parent="1">
          <mxGeometry x="-30" y="140" width="240" height="60" as="geometry" />
        </mxCell>
        <mxCell id="NgbG2q0fzwfk-Y-bPLzw-68" value="Tareas = {A, C, D, E, I, H, J, K, L, O, P" style="text;html=1;align=center;verticalAlign=middle;whiteSpace=wrap;rounded=0;" vertex="1" parent="1">
          <mxGeometry x="10" y="190" width="230" height="30" as="geometry" />
        </mxCell>
      </root>
    </mxGraphModel>
  </diagram>
</mxfile>
